<svg width="67" height="67" viewBox="0 0 67 67" fill="none" xmlns="http://www.w3.org/2000/svg">
<g id="fluent:music-notes-24-filled">
<path id="Vector" d="M55.5872 7.64319C55.587 7.31847 55.5109 6.9983 55.365 6.7082C55.2192 6.4181 55.0075 6.16609 54.747 5.97225C54.4865 5.77842 54.1843 5.64813 53.8645 5.59176C53.5447 5.5354 53.2162 5.55452 52.9051 5.64761L25.1115 13.9857C24.682 14.1142 24.3054 14.3778 24.0376 14.7372C23.7697 15.0967 23.6249 15.533 23.6246 15.9813V43.433C21.8216 42.1777 19.6467 41.5697 17.4541 41.7079C15.2615 41.8462 13.1803 42.7225 11.5492 44.1944C9.91818 45.6662 8.83338 47.6468 8.47142 49.8137C8.10946 51.9807 8.49167 54.2063 9.55583 56.1283C10.62 58.0503 12.3034 59.5556 14.3321 60.3989C16.3607 61.2422 18.6151 61.3741 20.7282 60.7729C22.8413 60.1717 24.6886 58.8729 25.9695 57.088C27.2504 55.3031 27.8894 53.1372 27.7825 50.9429L27.7936 50.7233V28.6496L51.4182 21.5622V37.8771C49.6152 36.6218 47.4403 36.0137 45.2477 36.152C43.0551 36.2902 40.9739 37.1666 39.3428 38.6384C37.7118 40.1103 36.627 42.0909 36.265 44.2578C35.9031 46.4247 36.2853 48.6504 37.3494 50.5724C38.4136 52.4944 40.097 53.9996 42.1257 54.843C44.1543 55.6863 46.4087 55.8181 48.5218 55.2169C50.6349 54.6158 52.4822 53.317 53.7631 51.5321C55.044 49.7472 55.683 47.5813 55.5761 45.3869L55.5872 45.1646V7.64319Z" fill="black"/>
</g>
</svg>
